#define fforward_width 15
#define fforward_height 13
static unsigned char fforward_bits[] = {
  0x40, 0x40, 0x60, 0x60, 0x70, 0x70, 0x78, 0x78, 0x7c, 0x7c, 0x7e, 0x7e,
  0x7f, 0x7f, 0x7e, 0x7e, 0x7c, 0x7c, 0x78, 0x78, 0x70, 0x70, 0x60, 0x60,
  0x40, 0x40, };
