#define pause_width 10
#define pause_height 9
static unsigned char pause_bits[] = {
  0xcf, 0x03, 0xcf, 0x03, 0xcf, 0x03, 0xcf, 0x03, 0xcf, 0x03, 0xcf, 0x03,
  0xcf, 0x03, 0xcf, 0x03, 0xcf, 0x03, };
