#define play_width 7
#define play_height 13
static unsigned char play_bits[] = {
  0x01, 0x03, 0x07, 0x0f, 0x1f, 0x3f, 0x7f, 0x3f, 0x1f, 0x0f, 0x07, 0x03,
  0x01, };
